<?xml version="1.0" encoding="UTF-8"?>
<svg xmlns="http://www.w3.org/2000/svg" viewBox="0 0 600 700" width="600" height="700">
  <rect width="600" height="700" fill="#0f172a"/>

  <!-- Floor -->
  <line x1="20" y1="434" x2="580" y2="434" stroke="#334155" stroke-width="1" stroke-dasharray="8 4"/>

  <!-- Skeleton -->
  <line x1="276.0" y1="236.2" x2="324.0" y2="236.2" stroke="#94a3b8" stroke-width="3" stroke-linecap="round"/>
  <line x1="276.0" y1="236.2" x2="276.0" y2="385.0" stroke="#94a3b8" stroke-width="3" stroke-linecap="round"/>
  <line x1="324.0" y1="236.2" x2="324.0" y2="385.0" stroke="#94a3b8" stroke-width="3" stroke-linecap="round"/>
  <line x1="276.0" y1="385.0" x2="324.0" y2="385.0" stroke="#94a3b8" stroke-width="3" stroke-linecap="round"/>
  <line x1="276.0" y1="236.2" x2="252.0" y2="320.2" stroke="#94a3b8" stroke-width="3" stroke-linecap="round"/>
  <line x1="252.0" y1="320.2" x2="240.0" y2="390.2" stroke="#94a3b8" stroke-width="3" stroke-linecap="round"/>
  <line x1="324.0" y1="236.2" x2="348.0" y2="320.2" stroke="#94a3b8" stroke-width="3" stroke-linecap="round"/>
  <line x1="348.0" y1="320.2" x2="360.0" y2="390.2" stroke="#94a3b8" stroke-width="3" stroke-linecap="round"/>
  <line x1="276.0" y1="385.0" x2="174.9" y2="400.5" stroke="#38bdf8" stroke-width="3" stroke-linecap="round"/>
  <line x1="174.9" y1="400.5" x2="85.6" y2="414.2" stroke="#38bdf8" stroke-width="3" stroke-linecap="round"/>
  <line x1="324.0" y1="385.0" x2="425.1" y2="400.5" stroke="#4ade80" stroke-width="3" stroke-linecap="round"/>
  <line x1="425.1" y1="400.5" x2="514.4" y2="414.2" stroke="#4ade80" stroke-width="3" stroke-linecap="round"/>
  <line x1="85.6" y1="414.2" x2="73.6" y2="414.2" stroke="#38bdf8" stroke-width="3" stroke-linecap="round"/>
  <line x1="514.4" y1="414.2" x2="526.4" y2="414.2" stroke="#4ade80" stroke-width="3" stroke-linecap="round"/>
  <line x1="300.0" y1="159.2" x2="276.0" y2="236.2" stroke="#94a3b8" stroke-width="3" stroke-linecap="round"/>
  <line x1="300.0" y1="159.2" x2="324.0" y2="236.2" stroke="#94a3b8" stroke-width="3" stroke-linecap="round"/>
  <circle cx="300.0" cy="159.2" r="3.5" fill="#e2e8f0" stroke="#fff" stroke-width="1"/>
  <circle cx="276.0" cy="236.2" r="3.5" fill="#e2e8f0" stroke="#fff" stroke-width="1"/>
  <circle cx="324.0" cy="236.2" r="3.5" fill="#e2e8f0" stroke="#fff" stroke-width="1"/>
  <circle cx="252.0" cy="320.2" r="3.5" fill="#e2e8f0" stroke="#fff" stroke-width="1"/>
  <circle cx="348.0" cy="320.2" r="3.5" fill="#e2e8f0" stroke="#fff" stroke-width="1"/>
  <circle cx="240.0" cy="390.2" r="3.5" fill="#e2e8f0" stroke="#fff" stroke-width="1"/>
  <circle cx="360.0" cy="390.2" r="3.5" fill="#e2e8f0" stroke="#fff" stroke-width="1"/>
  <circle cx="276.0" cy="385.0" r="5" fill="#a855f7" stroke="#fff" stroke-width="1"/>
  <circle cx="324.0" cy="385.0" r="5" fill="#a855f7" stroke="#fff" stroke-width="1"/>
  <circle cx="174.9" cy="400.5" r="3.5" fill="#e2e8f0" stroke="#fff" stroke-width="1"/>
  <circle cx="425.1" cy="400.5" r="3.5" fill="#e2e8f0" stroke="#fff" stroke-width="1"/>
  <circle cx="85.6" cy="414.2" r="5" fill="#f97316" stroke="#fff" stroke-width="1"/>
  <circle cx="514.4" cy="414.2" r="5" fill="#f97316" stroke="#fff" stroke-width="1"/>
  <circle cx="73.6" cy="414.2" r="3.5" fill="#e2e8f0" stroke="#fff" stroke-width="1"/>
  <circle cx="526.4" cy="414.2" r="3.5" fill="#e2e8f0" stroke="#fff" stroke-width="1"/>

  <!-- Split angle arc -->
  <path d="M 240.6 393.1 A 60 60 0 0 1 359.4 393.1" fill="none" stroke="#facc15" stroke-width="2.5" stroke-linecap="round" opacity="0.8"/>
  <text x="300.0" y="467.0" text-anchor="middle" font-size="18" font-weight="bold" fill="#facc15" font-family="monospace">165°</text>

  <!-- Title -->
  <text x="300" y="28" text-anchor="middle" font-size="16" font-weight="bold" fill="#e2e8f0" font-family="sans-serif">柔らかい + 前傾 (165°)</text>
  <text x="300" y="48" text-anchor="middle" font-size="12" fill="#94a3b8" font-family="sans-serif">体幹が前に15°傾いて代償</text>

  <!-- Meta -->
  <text x="12" y="610" font-size="11" fill="#64748b" font-family="monospace">splitAngle: 165</text>
  <text x="12" y="626" font-size="11" fill="#64748b" font-family="monospace">pelvisRoll: 0</text>
  <text x="12" y="642" font-size="11" fill="#64748b" font-family="monospace">trunkLean: 15</text>
  <text x="12" y="658" font-size="11" fill="#64748b" font-family="monospace">leftKneeBend: 0</text>
  <text x="12" y="674" font-size="11" fill="#64748b" font-family="monospace">rightKneeBend: 0</text>
  <text x="12" y="690" font-size="11" fill="#64748b" font-family="monospace">asymmetry: 0</text>
</svg>
