<?xml version="1.0" encoding="UTF-8"?>
<svg xmlns="http://www.w3.org/2000/svg" viewBox="0 0 600 700" width="600" height="700">
  <rect width="600" height="700" fill="#0f172a"/>

  <!-- Floor -->
  <line x1="20" y1="580" x2="580" y2="580" stroke="#334155" stroke-width="1" stroke-dasharray="8 4"/>

  <!-- Skeleton -->
  <line x1="303.4" y1="234.4" x2="351.4" y2="234.4" stroke="#94a3b8" stroke-width="3" stroke-linecap="round"/>
  <line x1="303.4" y1="234.4" x2="276.2" y2="381.1" stroke="#94a3b8" stroke-width="3" stroke-linecap="round"/>
  <line x1="351.4" y1="234.4" x2="323.8" y2="388.9" stroke="#94a3b8" stroke-width="3" stroke-linecap="round"/>
  <line x1="276.2" y1="381.1" x2="323.8" y2="388.9" stroke="#94a3b8" stroke-width="3" stroke-linecap="round"/>
  <line x1="303.4" y1="234.4" x2="279.4" y2="318.4" stroke="#94a3b8" stroke-width="3" stroke-linecap="round"/>
  <line x1="279.4" y1="318.4" x2="267.4" y2="388.4" stroke="#94a3b8" stroke-width="3" stroke-linecap="round"/>
  <line x1="351.4" y1="234.4" x2="375.4" y2="318.4" stroke="#94a3b8" stroke-width="3" stroke-linecap="round"/>
  <line x1="375.4" y1="318.4" x2="387.4" y2="388.4" stroke="#94a3b8" stroke-width="3" stroke-linecap="round"/>
  <line x1="276.2" y1="381.1" x2="204.1" y2="465.2" stroke="#38bdf8" stroke-width="3" stroke-linecap="round"/>
  <line x1="204.1" y1="465.2" x2="166.1" y2="560.4" stroke="#38bdf8" stroke-width="3" stroke-linecap="round"/>
  <line x1="323.8" y1="388.9" x2="407.3" y2="457.2" stroke="#4ade80" stroke-width="3" stroke-linecap="round"/>
  <line x1="407.3" y1="457.2" x2="471.0" y2="531.4" stroke="#4ade80" stroke-width="3" stroke-linecap="round"/>
  <line x1="166.1" y1="560.4" x2="154.1" y2="560.4" stroke="#38bdf8" stroke-width="3" stroke-linecap="round"/>
  <line x1="471.0" y1="531.4" x2="483.0" y2="531.4" stroke="#4ade80" stroke-width="3" stroke-linecap="round"/>
  <line x1="327.4" y1="157.4" x2="303.4" y2="234.4" stroke="#94a3b8" stroke-width="3" stroke-linecap="round"/>
  <line x1="327.4" y1="157.4" x2="351.4" y2="234.4" stroke="#94a3b8" stroke-width="3" stroke-linecap="round"/>
  <circle cx="327.4" cy="157.4" r="3.5" fill="#e2e8f0" stroke="#fff" stroke-width="1"/>
  <circle cx="303.4" cy="234.4" r="3.5" fill="#e2e8f0" stroke="#fff" stroke-width="1"/>
  <circle cx="351.4" cy="234.4" r="3.5" fill="#e2e8f0" stroke="#fff" stroke-width="1"/>
  <circle cx="279.4" cy="318.4" r="3.5" fill="#e2e8f0" stroke="#fff" stroke-width="1"/>
  <circle cx="375.4" cy="318.4" r="3.5" fill="#e2e8f0" stroke="#fff" stroke-width="1"/>
  <circle cx="267.4" cy="388.4" r="3.5" fill="#e2e8f0" stroke="#fff" stroke-width="1"/>
  <circle cx="387.4" cy="388.4" r="3.5" fill="#e2e8f0" stroke="#fff" stroke-width="1"/>
  <circle cx="276.2" cy="381.1" r="5" fill="#a855f7" stroke="#fff" stroke-width="1"/>
  <circle cx="323.8" cy="388.9" r="5" fill="#a855f7" stroke="#fff" stroke-width="1"/>
  <circle cx="204.1" cy="465.2" r="3.5" fill="#e2e8f0" stroke="#fff" stroke-width="1"/>
  <circle cx="407.3" cy="457.2" r="3.5" fill="#e2e8f0" stroke="#fff" stroke-width="1"/>
  <circle cx="166.1" cy="560.4" r="5" fill="#f97316" stroke="#fff" stroke-width="1"/>
  <circle cx="471.0" cy="531.4" r="5" fill="#f97316" stroke="#fff" stroke-width="1"/>
  <circle cx="154.1" cy="560.4" r="3.5" fill="#e2e8f0" stroke="#fff" stroke-width="1"/>
  <circle cx="483.0" cy="531.4" r="3.5" fill="#e2e8f0" stroke="#fff" stroke-width="1"/>

  <!-- Split angle arc -->
  <path d="M 263.6 432.7 A 60 60 0 0 1 345.6 424.0" fill="none" stroke="#f87171" stroke-width="2.5" stroke-linecap="round" opacity="0.8"/>
  <text x="308.2" y="466.6" text-anchor="middle" font-size="18" font-weight="bold" fill="#f87171" font-family="monospace">100°</text>

  <!-- Title -->
  <text x="300" y="28" text-anchor="middle" font-size="16" font-weight="bold" fill="#e2e8f0" font-family="sans-serif">硬い + 複合課題 (100°)</text>
  <text x="300" y="48" text-anchor="middle" font-size="12" fill="#94a3b8" font-family="sans-serif">膝曲がり + 骨盤傾き + 左右差 + 体幹傾き</text>

  <!-- Meta -->
  <text x="12" y="610" font-size="11" fill="#64748b" font-family="monospace">splitAngle: 100</text>
  <text x="12" y="626" font-size="11" fill="#64748b" font-family="monospace">pelvisRoll: 8</text>
  <text x="12" y="642" font-size="11" fill="#64748b" font-family="monospace">trunkLean: 12</text>
  <text x="12" y="658" font-size="11" fill="#64748b" font-family="monospace">leftKneeBend: 20</text>
  <text x="12" y="674" font-size="11" fill="#64748b" font-family="monospace">rightKneeBend: 10</text>
  <text x="12" y="690" font-size="11" fill="#64748b" font-family="monospace">asymmetry: 10</text>
</svg>
