<?xml version="1.0" encoding="UTF-8"?>
<svg xmlns="http://www.w3.org/2000/svg" viewBox="0 0 600 700" width="600" height="700">
  <rect width="600" height="700" fill="#0f172a"/>

  <!-- Floor -->
  <line x1="20" y1="533" x2="580" y2="533" stroke="#334155" stroke-width="1" stroke-dasharray="8 4"/>

  <!-- Skeleton -->
  <line x1="276.0" y1="231.0" x2="324.0" y2="231.0" stroke="#94a3b8" stroke-width="3" stroke-linecap="round"/>
  <line x1="276.0" y1="231.0" x2="276.0" y2="385.0" stroke="#94a3b8" stroke-width="3" stroke-linecap="round"/>
  <line x1="324.0" y1="231.0" x2="324.0" y2="385.0" stroke="#94a3b8" stroke-width="3" stroke-linecap="round"/>
  <line x1="276.0" y1="385.0" x2="324.0" y2="385.0" stroke="#94a3b8" stroke-width="3" stroke-linecap="round"/>
  <line x1="276.0" y1="231.0" x2="252.0" y2="315.0" stroke="#94a3b8" stroke-width="3" stroke-linecap="round"/>
  <line x1="252.0" y1="315.0" x2="240.0" y2="385.0" stroke="#94a3b8" stroke-width="3" stroke-linecap="round"/>
  <line x1="324.0" y1="231.0" x2="348.0" y2="315.0" stroke="#94a3b8" stroke-width="3" stroke-linecap="round"/>
  <line x1="348.0" y1="315.0" x2="360.0" y2="385.0" stroke="#94a3b8" stroke-width="3" stroke-linecap="round"/>
  <line x1="276.0" y1="385.0" x2="192.4" y2="453.3" stroke="#38bdf8" stroke-width="3" stroke-linecap="round"/>
  <line x1="192.4" y1="453.3" x2="118.7" y2="513.5" stroke="#38bdf8" stroke-width="3" stroke-linecap="round"/>
  <line x1="324.0" y1="385.0" x2="407.6" y2="453.3" stroke="#4ade80" stroke-width="3" stroke-linecap="round"/>
  <line x1="407.6" y1="453.3" x2="481.3" y2="513.5" stroke="#4ade80" stroke-width="3" stroke-linecap="round"/>
  <line x1="118.7" y1="513.5" x2="106.7" y2="513.5" stroke="#38bdf8" stroke-width="3" stroke-linecap="round"/>
  <line x1="481.3" y1="513.5" x2="493.3" y2="513.5" stroke="#4ade80" stroke-width="3" stroke-linecap="round"/>
  <line x1="300.0" y1="154.0" x2="276.0" y2="231.0" stroke="#94a3b8" stroke-width="3" stroke-linecap="round"/>
  <line x1="300.0" y1="154.0" x2="324.0" y2="231.0" stroke="#94a3b8" stroke-width="3" stroke-linecap="round"/>
  <circle cx="300.0" cy="154.0" r="3.5" fill="#e2e8f0" stroke="#fff" stroke-width="1"/>
  <circle cx="276.0" cy="231.0" r="3.5" fill="#e2e8f0" stroke="#fff" stroke-width="1"/>
  <circle cx="324.0" cy="231.0" r="3.5" fill="#e2e8f0" stroke="#fff" stroke-width="1"/>
  <circle cx="252.0" cy="315.0" r="3.5" fill="#e2e8f0" stroke="#fff" stroke-width="1"/>
  <circle cx="348.0" cy="315.0" r="3.5" fill="#e2e8f0" stroke="#fff" stroke-width="1"/>
  <circle cx="240.0" cy="385.0" r="3.5" fill="#e2e8f0" stroke="#fff" stroke-width="1"/>
  <circle cx="360.0" cy="385.0" r="3.5" fill="#e2e8f0" stroke="#fff" stroke-width="1"/>
  <circle cx="276.0" cy="385.0" r="5" fill="#a855f7" stroke="#fff" stroke-width="1"/>
  <circle cx="324.0" cy="385.0" r="5" fill="#a855f7" stroke="#fff" stroke-width="1"/>
  <circle cx="192.4" cy="453.3" r="3.5" fill="#e2e8f0" stroke="#fff" stroke-width="1"/>
  <circle cx="407.6" cy="453.3" r="3.5" fill="#e2e8f0" stroke="#fff" stroke-width="1"/>
  <circle cx="118.7" cy="513.5" r="5" fill="#f97316" stroke="#fff" stroke-width="1"/>
  <circle cx="481.3" cy="513.5" r="5" fill="#f97316" stroke="#fff" stroke-width="1"/>
  <circle cx="106.7" cy="513.5" r="3.5" fill="#e2e8f0" stroke="#fff" stroke-width="1"/>
  <circle cx="493.3" cy="513.5" r="3.5" fill="#e2e8f0" stroke="#fff" stroke-width="1"/>

  <!-- Split angle arc -->
  <path d="M 251.0 419.7 A 60 60 0 0 1 349.0 419.7" fill="none" stroke="#f87171" stroke-width="2.5" stroke-linecap="round" opacity="0.8"/>
  <text x="300.0" y="467.0" text-anchor="middle" font-size="18" font-weight="bold" fill="#f87171" font-family="monospace">110°</text>

  <!-- Title -->
  <text x="300" y="28" text-anchor="middle" font-size="16" font-weight="bold" fill="#e2e8f0" font-family="sans-serif">硬い人 (110°)</text>
  <text x="300" y="48" text-anchor="middle" font-size="12" fill="#94a3b8" font-family="sans-serif">週1ストレッチ程度の柔軟性</text>

  <!-- Meta -->
  <text x="12" y="610" font-size="11" fill="#64748b" font-family="monospace">splitAngle: 110</text>
  <text x="12" y="626" font-size="11" fill="#64748b" font-family="monospace">pelvisRoll: 0</text>
  <text x="12" y="642" font-size="11" fill="#64748b" font-family="monospace">trunkLean: 0</text>
  <text x="12" y="658" font-size="11" fill="#64748b" font-family="monospace">leftKneeBend: 0</text>
  <text x="12" y="674" font-size="11" fill="#64748b" font-family="monospace">rightKneeBend: 0</text>
  <text x="12" y="690" font-size="11" fill="#64748b" font-family="monospace">asymmetry: 0</text>
</svg>
